<svg xmlns="http://www.w3.org/2000/svg" enable-background="new 0 0 64 64" viewBox="0 0 64 64" id="approve">
  <g>
    <path d="M54.4,0H13.62c-1.31,0-2.38,1.07-2.38,2.38v1.51h-1.6c-1.34,0-2.42,1.09-2.42,2.42v55.25C7.21,62.9,8.3,64,9.63,64h40.93
		c1.33,0,2.41-1.1,2.41-2.44v-1.72h1.43c1.31,0,2.38-1.07,2.38-2.38V2.38C56.79,1.07,55.72,0,54.4,0z M13.19,57.45V5l0.01-0.02
		l-0.01-0.25l0-0.01V2.38c0-0.24,0.19-0.43,0.43-0.43H54.4c0.24,0,0.43,0.19,0.43,0.43v55.07c0,0.24-0.19,0.43-0.43,0.43h-2.27
		l-0.02-0.01l-0.24,0.01l-0.01,0H13.62C13.38,57.89,13.19,57.69,13.19,57.45z"></path>
    <path d="M15.94,15.51h36.16c0.56,0,1.01-0.45,1.01-1.01V6.13c0-0.56-0.45-1.01-1.01-1.01H15.94c-0.56,0-1.01,0.45-1.01,1.01v8.36
		C14.92,15.05,15.37,15.51,15.94,15.51z M47.37,8.23c0-0.28,0.22-0.49,0.49-0.49h0.44c1.42,0,2.58,1.16,2.58,2.58
		s-1.16,2.57-2.58,2.57h-0.44c-0.28,0-0.49-0.22-0.49-0.48V8.23z M43.43,8.23c0-0.28,0.23-0.49,0.49-0.49h1.76
		c0.27,0,0.48,0.22,0.48,0.49c0,0.27-0.22,0.48-0.48,0.48H44.4v1.11h1.28c0.27,0,0.48,0.22,0.48,0.49c0,0.27-0.22,0.48-0.48,0.48
		H44.4v1.11h1.28c0.27,0,0.48,0.22,0.48,0.49c0,0.27-0.22,0.48-0.48,0.48h-1.76c-0.27,0-0.49-0.22-0.49-0.48V8.23z M39.35,7.77
		c0.26-0.08,0.53,0.06,0.61,0.32l0.9,2.8l0.98-2.81c0.09-0.26,0.36-0.39,0.61-0.31c0.26,0.09,0.38,0.36,0.31,0.62l-1.46,4.17
		c-0.07,0.2-0.26,0.32-0.46,0.32c0,0,0,0-0.01,0c-0.21,0-0.38-0.14-0.45-0.33l-1.34-4.17C38.96,8.12,39.09,7.85,39.35,7.77z
		 M36.11,7.74c1.42,0,2.58,1.16,2.58,2.58s-1.16,2.57-2.58,2.57c-1.42,0-2.57-1.15-2.57-2.57S34.69,7.74,36.11,7.74z M30.09,10.07
		V8.23c0-0.28,0.22-0.49,0.48-0.49h0.93c0.9,0,1.62,0.74,1.62,1.63c0,0.67-0.4,1.25-0.98,1.5l0.9,1.25
		c0.16,0.22,0.11,0.52-0.11,0.68c-0.09,0.06-0.19,0.09-0.29,0.09c-0.15,0-0.3-0.07-0.39-0.21l-1.19-1.65v1.38
		c0,0.27-0.22,0.48-0.48,0.48s-0.48-0.22-0.48-0.48v-1.43c-0.19-0.07-0.32-0.25-0.32-0.45C29.78,10.32,29.91,10.14,30.09,10.07z
		 M26.18,10.07V8.23c0-0.28,0.22-0.49,0.48-0.49h0.93c0.9,0,1.63,0.74,1.63,1.63c0,0.91-0.74,1.63-1.63,1.63h-0.43v1.4
		c0,0.27-0.22,0.48-0.49,0.48c-0.27,0-0.48-0.22-0.48-0.48v-1.43c-0.18-0.07-0.32-0.25-0.32-0.45C25.86,10.32,26,10.14,26.18,10.07z
		 M22.04,10.07V8.23c0-0.28,0.22-0.49,0.48-0.49h0.93c0.9,0,1.63,0.74,1.63,1.63c0,0.91-0.74,1.63-1.63,1.63h-0.43v1.4
		c0,0.27-0.22,0.48-0.49,0.48c-0.27,0-0.48-0.22-0.48-0.48v-1.43c-0.18-0.07-0.32-0.25-0.32-0.45
		C21.73,10.32,21.86,10.14,22.04,10.07z M17.17,12.24l1.56-4.17c0.07-0.2,0.25-0.32,0.45-0.32c0.16,0,0.38,0.13,0.45,0.32l1.08,2.96
		c0.06,0.08,0.1,0.18,0.1,0.29l0.33,0.93c0.09,0.25-0.04,0.53-0.29,0.62c-0.26,0.09-0.53-0.04-0.62-0.3l-0.29-0.76h-1.59l-0.29,0.77
		c-0.08,0.2-0.27,0.32-0.46,0.32c-0.05,0-0.11-0.01-0.17-0.03C17.21,12.76,17.08,12.49,17.17,12.24z"></path>
    <path d="M49.92 10.32c0-.88-.7-1.59-1.57-1.6v3.2C49.22 11.9 49.92 11.19 49.92 10.32zM36.11 11.91c.89 0 1.6-.72 1.6-1.6 0-.89-.72-1.6-1.6-1.6-.88 0-1.6.72-1.6 1.6C34.52 11.2 35.23 11.91 36.11 11.91zM32.16 9.37c0-.36-.3-.66-.66-.66h-.44v1.33h.44C31.87 10.04 32.16 9.74 32.16 9.37zM28.24 9.37c0-.36-.3-.66-.66-.66h-.43v1.33h.43C27.95 10.04 28.24 9.74 28.24 9.37zM24.11 9.37c0-.36-.3-.66-.66-.66h-.43v1.33h.43C23.81 10.04 24.11 9.74 24.11 9.37z"></path>
    <polygon points="19.17 9.64 18.72 10.83 19.61 10.83"></polygon>
    <path d="M16.92,32.14l0.21,0.21c1.64,1.61,3.79,2.5,6.07,2.5c4.77,0,8.64-3.88,8.64-8.65s-3.88-8.65-8.64-8.65
		c-4.77,0-8.65,3.88-8.65,8.65c0,2.2,0.83,4.29,2.34,5.9L16.92,32.14z M23.2,19.5c3.69,0,6.7,3,6.7,6.7c0,1.41-0.45,2.79-1.28,3.94
		c-1.39-1.16-3.4-1.85-5.49-1.85c-2.08,0-4.02,0.64-5.4,1.77c-0.79-1.13-1.22-2.48-1.22-3.86C16.5,22.5,19.51,19.5,23.2,19.5z"></path>
    <circle cx="23.12" cy="24.24" r="3.63"></circle>
    <path d="M23.08 39.5h-6.48c-.52 0-.95.42-.95.95v6.24c0 .52.42.95.95.95h6.48c.52 0 .95-.42.95-.95v-6.24C24.03 39.93 23.61 39.5 23.08 39.5zM49.15 40.3H29.28c-.54 0-.98.44-.98.98 0 .54.44.98.98.98h19.87c.54 0 .98-.44.98-.98C50.13 40.74 49.69 40.3 49.15 40.3zM46.67 44.89H29.28c-.54 0-.98.44-.98.98 0 .54.44.98.98.98h17.39c.54 0 .98-.44.98-.98C47.65 45.33 47.21 44.89 46.67 44.89z"></path>
  </g>
</svg>
