<svg xmlns="http://www.w3.org/2000/svg" viewBox="0 0 512 512" id="Check">
  <g fill="#000000" class="color000000 svgShape">
    <g fill="#000000" class="color000000 svgShape">
      <path fill="#b6ea00" d="M409.69,255.99v.02A153.687,153.687,0,0,1,256.01,409.69h-.02A153.687,153.687,0,0,1,102.31,256.01v-.02A153.687,153.687,0,0,1,255.99,102.31h.02A153.687,153.687,0,0,1,409.69,255.99Zm-72.78-28.02-23.59-24.49-81.76,78.77-35.64-34.3-23.58,24.49,59.23,57.02Z" class="color00acea svgShape"></path>
      <polygon fill="#e7e9e0" points="313.32 203.48 336.91 227.97 231.57 329.46 172.34 272.44 195.92 247.95 231.56 282.25 313.32 203.48" class="color00efd1 svgShape"></polygon>
    </g>
    <g fill="#000000" class="color000000 svgShape">
      <path fill="#4f6308" d="M320.522,196.543a10,10,0,0,0-14.14-.264l-74.826,72.088-28.7-27.622a10,10,0,0,0-14.138.27l-23.58,24.49a10,10,0,0,0,.268,14.14l59.23,57.019a10,10,0,0,0,13.874,0l105.341-101.49a10,10,0,0,0,.263-14.139ZM231.567,315.576l-45.087-43.4,9.709-10.084,28.437,27.367a10,10,0,0,0,13.872,0l74.558-71.83,9.715,10.085Z" class="color083863 svgShape"></path>
      <path fill="#4f6308" d="M255.99,92.31c-90.253,0-163.68,73.581-163.68,163.855C92.31,346.418,165.737,420,255.99,420h.02c90.253,0,163.68-73.582,163.68-163.855C419.69,165.891,346.263,92.31,255.99,92.31ZM256.01,400h-.02c-79.225,0-143.68-64.61-143.68-143.855,0-79.226,64.455-143.758,143.7-143.758,79.225,0,143.68,64.571,143.68,143.816C399.69,335.429,335.235,400,256.01,400Z" class="color083863 svgShape"></path>
    </g>
  </g>
</svg>
