<svg id="SvgjsSvg1001" width="288" height="288" xmlns="http://www.w3.org/2000/svg" version="1.1" xmlns:xlink="http://www.w3.org/1999/xlink" xmlns:svgjs="http://svgjs.com/svgjs"><defs id="SvgjsDefs1002"></defs><g id="SvgjsG1008"><svg xmlns="http://www.w3.org/2000/svg" viewBox="0 0 64 64" width="288" height="288"><circle cx="32" cy="32" r="28" fill="#78da6e" class="color6ec0da svgShape"></circle><path fill="#5ed069" d="M60 32c0 15.46-12.54 28-28 28V4c15.46 0 28 12.54 28 28z" class="color5eadd0 svgShape"></path><path fill="#000000" d="M51.71 21.3 32 41.22l-6.96 7.04c-.18.19-.44.3-.71.3-.26 0-.52-.11-.71-.3L10.29 34.78a.996.996 0 0 1 0-1.41l4.1-4.15c.38-.38 1.05-.38 1.42 0l8.52 8.62L32 30.09l14.19-14.35c.18-.19.44-.3.71-.3a1 1 0 0 1 .71.3l4.1 4.15c.39.39.39 1.02 0 1.41z" class="color2b5ba7 svgShape"></path><path fill="#000000" d="M51.71 21.3 32 41.22V30.09l14.19-14.35c.18-.19.44-.3.71-.3a1 1 0 0 1 .71.3l4.1 4.15c.39.39.39 1.02 0 1.41z" class="color142d84 svgShape"></path><path d="M32 3C16.009 3 3 16.009 3 32c0 15.99 13.009 29 29 29 15.99 0 29-13.01 29-29C61 16.009 47.99 3 32 3zm0 56C17.112 59 5 46.888 5 32S17.112 5 32 5s27 12.112 27 27-12.112 27-27 27zm19.711-39.11-4.103-4.148a.999.999 0 0 0-1.422 0L24.333 37.837l-8.52-8.614a1.03 1.03 0 0 0-1.422 0l-4.103 4.148a1 1 0 0 0 0 1.406l13.333 13.481a1 1 0 0 0 1.422 0L51.71 21.295a.996.996 0 0 0 .001-1.405zM24.333 46.134l-11.927-12.06 2.696-2.727 8.52 8.614a1.027 1.027 0 0 0 1.422 0l21.853-22.096 2.696 2.727-25.26 25.542z"></path></svg></g></svg>