<svg xmlns="http://www.w3.org/2000/svg" viewBox="0 0 50 50" id="cheapwebhosting">
  <path fill="#4e4e4c" d="M6.243 11.466h37.514v28.59H6.243z" class="color4e4c4d svgShape"></path>
  <path fill="#676765" d="M41.947 36.23H8.053a7.053 7.053 0 0 0 0 14.106h33.894a7.053 7.053 0 1 0 0-14.106zm0-18.287H8.053a7.053 7.053 0 1 0 0 14.106h33.894a7.053 7.053 0 1 0 0-14.106zm0-18.279H8.053a7.053 7.053 0 1 0 0 14.106h33.894a7.053 7.053 0 1 0 0-14.106z" class="color656766 svgShape"></path>
  <circle cx="8.513" cy="6.717" r="2.715" fill="#cdec62" class="colorec6e62 svgShape"></circle>
  <circle cx="16.228" cy="6.717" r="2.715" fill="#a6bd57" class="color85bd57 svgShape"></circle>
  <circle cx="8.513" cy="24.995" r="2.715" fill="#cdec62" class="colorec6e62 svgShape"></circle>
  <circle cx="16.228" cy="24.995" r="2.715" fill="#a6bd57" class="color85bd57 svgShape"></circle>
  <circle cx="8.513" cy="43.283" r="2.715" fill="#cdec62" class="colorec6e62 svgShape"></circle>
  <circle cx="16.228" cy="43.283" r="2.715" fill="#a6bd57" class="color85bd57 svgShape"></circle>
  <path fill="#c2e253" d="m40.758 38.95-8.117 8.132c-.4.384-1.084.384-1.468 0L23.04 38.95c-.645-.646-.176-1.784.77-1.784h2.336l-1.468-12.62c-.07-.838.86-1.361 1.522-.885l5.011 3.751c.33.246.8.246 1.13 0l5.011-3.75c.662-.477 1.592.046 1.522.883l-1.452 12.621h2.582c.946 0 1.4 1.138.754 1.784z" class="color53b1e2 svgShape"></path>
  <path fill="#e7e9e0" d="M31.91 44.901c-.664 0-1.205-.541-1.205-1.204s.541-1.205 1.205-1.205 1.187.541 1.187 1.205-.524 1.204-1.187 1.204zm-.234-5.185v-.756c-.945-.096-1.794-.472-2.546-1.128l.755-.9c.58.504 1.176.804 1.79.9v-2.007c-.779-.187-1.35-.431-1.712-.735-.362-.304-.543-.753-.543-1.35s.208-1.085.626-1.464c.417-.38.96-.587 1.63-.621v-.518h.662v.528c.759.055 1.476.314 2.152.776l-.672.952a3.336 3.336 0 0 0-1.48-.6v1.945h.03c.794.187 1.377.439 1.75.756.372.317.558.778.558 1.38 0 .605-.214 1.096-.641 1.476-.428.38-.994.586-1.697.62v.746h-.662zm-.73-6.68c-.176.156-.263.348-.263.58s.068.414.206.548c.138.135.4.264.787.388v-1.79c-.31.027-.554.119-.73.274zm2.178 4.537c.193-.158.29-.358.29-.6s-.076-.432-.227-.574c-.153-.141-.435-.274-.85-.398v1.862c.332-.034.594-.13.787-.29z" class="colorffffff svgShape"></path>
</svg>
