<svg xmlns="http://www.w3.org/2000/svg" xmlns:xlink="http://www.w3.org/1999/xlink" viewBox="0 0 512 512" id="prototype">
  <defs>
    <linearGradient id="a" x1="106.15" x2="268.02" y1="288.09" y2="288.09" gradientTransform="matrix(-1 0 0 1 341.61 0)" gradientUnits="userSpaceOnUse">
      <stop offset="0" stop-color="#cacfdd"></stop>
      <stop offset="1" stop-color="#eef0f1"></stop>
    </linearGradient>
    <linearGradient xlink:href="#a" id="b" x1="262.99" x2="342.52" y1="357.51" y2="357.51"></linearGradient>
    <linearGradient xlink:href="#a" id="c" x1="372.03" x2="372.03" y1="446.16" y2="410.45"></linearGradient>
    <linearGradient xlink:href="#a" id="d" x1="1766.83" x2="1802.5" y1="1052.44" y2="1052.44" gradientTransform="scale(-1 1)rotate(45 1828.412 -1574.705)"></linearGradient>
    <linearGradient xlink:href="#a" id="e" x1="192.21" x2="208.48" y1="108.99" y2="125.26" gradientTransform="matrix(-1 0 0 1 332.43 197.44)"></linearGradient>
    <linearGradient xlink:href="#a" id="f" x1="1809.21" x2="1883.94" y1="1157.62" y2="1232.35" gradientTransform="scale(-1 1)rotate(45 1828.412 -1574.705)"></linearGradient>
  </defs>
  <g style="isolation:isolate">
    <g>
      <rect width="268.9" height="371.65" x="73.62" y="50.55" fill="#f5f5f5"></rect>
      <path fill="url(#a)" d="M73.59,185.38V303.1l79,79c7,6.72,15.32,8.73,25.05,8.73h57.64a17.56,17.56,0,0,0-.71-7.87L217,331.56a23.1,23.1,0,0,0-7.13-9.9Z" style="mix-blend-mode:multiply"></path>
      <path fill="#5e6175" d="M345.52,425.21H70.62V47.55h274.9Zm-268.9-6h262.9V53.55H76.62Z"></path>
      <rect width="82.05" height="86.72" x="109.22" y="87.68" fill="#a9afc4"></rect>
      <rect width="82.05" height="86.72" x="225.12" y="87.68" fill="#a9afc4"></rect>
      <path fill="#5e6175" d="M194.27 177.4H106.22V84.68h88.05zm-82.05-6h76.05V90.68H112.22zM310.17 177.4H222.12V84.68h88.05zm-82.05-6h76.05V90.68H228.12z"></path>
      <rect width="6" height="119.38" x="147.24" y="71.35" fill="#5e6175" transform="rotate(-43.41 150.265 131.042)"></rect>
      <rect width="119.38" height="6" x="90.55" y="128.04" fill="#5e6175" transform="rotate(-46.59 150.24 131.038)"></rect>
      <path fill="#5e6175" d="M310.17,177.4H222.12V84.68h88.05Zm-82.05-6h76.05V90.68H228.12Z"></path>
      <rect width="6" height="119.38" x="263.14" y="71.35" fill="#5e6175" transform="rotate(-43.41 266.17 131.036)"></rect>
      <rect width="119.38" height="6" x="206.45" y="128.04" fill="#5e6175" transform="rotate(-46.59 266.133 131.037)"></rect>
      <rect width="197.95" height="14.83" x="109.22" y="200.37" fill="#dee1ec"></rect>
      <rect width="150.04" height="14.83" x="157.12" y="236.38" fill="#dee1ec"></rect>
      <rect width="186.76" height="113.73" x="278.64" y="308.47" fill="#a9afc4"></rect>
      <rect width="79.52" height="129.4" x="262.99" y="292.81" fill="url(#b)" style="mix-blend-mode:multiply"></rect>
      <rect width="186.77" height="113.74" x="278.64" y="308.46" fill="#a9afc4"></rect>
      <rect width="159.49" height="87.9" x="292.28" y="320.85" fill="#f5f5f5"></rect>
      <rect width="39.39" height="25.19" x="352.33" y="422.2" fill="#a9afc4"></rect>
      <rect width="39.39" height="11.54" x="352.33" y="422.2" fill="url(#c)" style="mix-blend-mode:multiply"></rect>
      <path fill="#a9afc4" d="M404.08,447.39H340a7,7,0,0,0,0,14.06h64.11a7,7,0,1,0,0-14.06Z"></path>
      <path fill="#5e6175" d="M394.72,450.39H349.33V419.2h45.39Zm-39.39-6h33.39V425.2H355.33Z"></path>
      <path fill="#5e6175" d="M404.08 464.45H340a10 10 0 010-20.06h64.11a10 10 0 010 20.06zM340 450.39a4 4 0 000 8.06h64.11a4 4 0 000-8.06zM468.41 425.2H275.64V305.47H468.41zm-186.77-6H462.41V311.47H281.64z"></path>
      <path fill="#dee1ec" d="M150.66,358.16c15.32,15.33,14.47,14.7,15.65,15.11l51.08,17.41a2.33,2.33,0,0,0,3.06-2.22c0-.57.4.76-5.63-16.86-13.12-38.31-12-35.62-12.92-36.51L187.82,321Z"></path>
      <path fill="#5e6175" d="M201.25,385.18l16.14,5.5a2.34,2.34,0,0,0,3-2.95l-5.52-16.13A19.2,19.2,0,0,0,201.25,385.18Z"></path>
      <path fill="#5e6175" d="M218.12,393.8c-1.28,0,2.73,1.23-52.77-17.69a6.86,6.86,0,0,1-2.64-1.65l-16.29-16.3,41.4-41.4L204,333a6.92,6.92,0,0,1,1.64,2.63l17.52,51.17A5.35,5.35,0,0,1,218.12,393.8ZM154.9,358.16C167.76,371,167,370.33,167.28,370.43l49.77,17L200,337.53c-.09-.27.61.49-12.16-12.28Z"></path>
      <path fill="#5e6175" d="M218.12,393.8c-1.26,0-.18.24-20.48-6.68l.71-2.71a22.21,22.21,0,0,1,15.7-15.71l2.7-.71,6.43,18.77A5.36,5.36,0,0,1,218.12,393.8Zm-13-10.48,12,4.08L213,375.45A16.25,16.25,0,0,0,205.1,383.32Z"></path>
      <path fill="#a9afc4" d="M76.31,283.83c87,86.95,86.42,86.6,86.52,86.5a13.13,13.13,0,1,1,18.58-18.57h0A13.14,13.14,0,0,1,199.83,333l-86.35-86.35Z"></path>
      <rect width="52.56" height="16.7" x="62.71" y="250.99" fill="#5e6175" transform="rotate(-45 88.983 259.342)"></rect>
      <path fill="#e1830e" d="M51.53,259l13,13,37.16-37.16-13-13a22.81,22.81,0,0,0-27.52-3.63c-3.38,1.94-5,3.85-9.64,8.55A22.79,22.79,0,0,0,51.53,259Z"></path>
      <path fill="url(#d)" d="M51.53,259l13,13,13.27-13.27-13-13a22.84,22.84,0,0,1-3.63-27.52c-3.38,1.94-5,3.85-9.64,8.55A22.79,22.79,0,0,0,51.53,259Z" style="mix-blend-mode:multiply"></path>
      <path fill="#5e6175" d="M76.31,288.07,60.26,272l41.41-41.41,16,16ZM68.75,272l7.56,7.56,32.92-32.92-7.56-7.56Z"></path>
      <path fill="#a9afc4" d="M94.9 265.24l86.51 86.51A13.13 13.13 0 11200 333.18c.1-.1.47.47-86.51-86.52zM76.32 283.82l86.35 86.36a13.14 13.14 0 0118.74-18.42L94.89 265.24z"></path>
      <path fill="#a9afc4" d="M76.31,283.83c87,86.95,86.42,86.6,86.52,86.5C75.87,283.38,76.41,283.73,76.31,283.83Z"></path>
      <path fill="url(#e)" d="M76.32,283.82l86.35,86.36a13.14,13.14,0,0,1,18.74-18.42L94.89,265.24Z" style="mix-blend-mode:multiply"></path>
      <path fill="url(#f)" d="M76.31,283.83c87,86.95,86.42,86.6,86.52,86.5C75.87,283.38,76.41,283.73,76.31,283.83Z" style="mix-blend-mode:multiply"></path>
      <path fill="#5e6175" d="M179.29,353.87c-.1,0,2.47,2.48-88.63-88.63l22.82-22.82,90.75,90.75L200,337.41l-2.28-2.26a10.13,10.13,0,0,0-14.18,14.48ZM99.14,265.24l75.52,75.52A16.07,16.07,0,0,1,189,326.44L113.48,250.9Z"></path>
      <path fill="#5e6175" d="M160.55 372.3L72.07 283.82 94.9 261c89 89.05 88.53 88.64 88.63 88.64l-4.24 4.24a10.14 10.14 0 00-14.46 14.21zm-80-88.48l75.53 75.54A16.09 16.09 0 01170.41 345L94.9 269.49zM64.5 276.26l-15.1-15.1a25.79 25.79 0 010-36.48c4.75-4.75 6.6-6.91 10.27-9a25.82 25.82 0 0131.14 4.11l15.1 15.1zM49.42 250.68c2.06 4.64 3 5 15.08 17.1l32.92-32.92L86.57 224a19.79 19.79 0 00-28 0l-4.92 4.92A19.78 19.78 0 0049.42 250.68z"></path>
      <rect width="36" height="6" x="217.39" y="387.8" fill="#5e6175"></rect>
      <path fill="#e1830e" d="M372,213a38.81,38.81,0,0,1,38.63,42c.11,0,.4,0-26.21,0l40.39,32.38L462.55,255c-15.56,0-21.38.06-21.27,0A69.4,69.4,0,0,0,372,182.39Z"></path>
      <rect width="39.82" height="42.09" x="323.99" y="334.1" fill="#a9afc4"></rect>
      <rect width="39.82" height="42.09" x="380.24" y="334.1" fill="#a9afc4"></rect>
      <path fill="#5e6175" d="M366.81 379.2H321V331.1h45.82zm-39.82-6h33.82V337.1H327zM423.07 379.2H377.24V331.1h45.83zm-39.83-6h33.83V337.1H383.24z"></path>
      <rect width="6" height="57.94" x="340.9" y="326.18" fill="#5e6175" transform="rotate(-43.41 343.935 355.161)"></rect>
      <rect width="57.94" height="6" x="314.93" y="352.15" fill="#5e6175" transform="rotate(-46.6 343.855 355.127)"></rect>
      <path fill="#5e6175" d="M423.07,379.2H377.24V331.1h45.83Zm-39.83-6h33.83V337.1H383.24Z"></path>
      <rect width="6" height="57.95" x="397.16" y="326.18" fill="#5e6175" transform="rotate(-43.41 400.205 355.164)"></rect>
      <rect width="57.95" height="6" x="371.18" y="352.15" fill="#5e6175" transform="rotate(-46.6 400.116 355.134)"></rect>
      <rect width="96.08" height="6" x="323.99" y="390.88" fill="#5e6175"></rect>
      <rect width="19.55" height="6" x="443.34" y="179.58" fill="#5e6175" transform="rotate(-45 453.118 182.582)"></rect>
      <rect width="19.55" height="6" x="456.45" y="202.61" fill="#5e6175"></rect>
      <rect width="6" height="19.55" x="428.27" y="159.17" fill="#5e6175"></rect>
      <path fill="#a9afc4" d="M184.12,447h-6v-6h6Zm-16,0h-6v-6h6Zm-16,0h-6v-6h6Zm-16,0h-6v-6h6Zm-16,0h-6v-6h6Zm-16,0h-6v-6h6Zm-16,0h-6v-6h6Zm-16.53-.55a30.27,30.27,0,0,1-6.35-2L67.63,439a23.81,23.81,0,0,0,5.09,1.57Zm-15.5-8.09a31,31,0,0,1-4.23-5.12l5-3.3a24.83,24.83,0,0,0,3.4,4.12ZM47.57,423a30.31,30.31,0,0,1-.72-6.59h6a24.75,24.75,0,0,0,.58,5.31Zm5.28-16.6h-6v-6h6Z"></path>
      <path fill="#e1830e" d="M372.75 97.22a27.41 27.41 0 0127.41 27.41 27.4 27.4 0 0127.4-27.41 27.41 27.41 0 01-27.4-27.41A27.41 27.41 0 01372.75 97.22zM36 194.23a8.84 8.84 0 018.85 8.84 8.82 8.82 0 018.84-8.84 8.84 8.84 0 01-8.84-8.85A8.85 8.85 0 0136 194.23z"></path>
    </g>
  </g>
</svg>
