<svg xmlns="http://www.w3.org/2000/svg" viewBox="0 0 50 50" id="vpswebhosting">
  <path fill="#4d4d4c" d="M14.6 9.4h20.7v4.5H14.6zM24.5 17h1v10.7h-1z" class="color4d4c4d svgShape"></path>
  <path fill="#4d4d4c" d="M38.5 36.3h-1v-5.1c0-1.5-1.3-2.8-2.8-2.8H15.3c-1.5 0-2.8 1.3-2.8 2.8v5.1h-1v-5.1c0-2.1 1.7-3.8 3.8-3.8h19.3c2.1 0 3.8 1.7 3.8 3.8v5.1h.1z" class="color4d4c4d svgShape"></path>
  <circle cx="25" cy="27.9" r="2.8" fill="#ceed62" class="colored6f62 svgShape"></circle>
  <path fill="#4d4d4c" d="M6.7 45.8h8.7v1.5H6.7z" class="color4d4c4d svgShape"></path>
  <path fill="#676765" d="M16.2 47.2H5.9c-.5 0-.9.4-.9.9s.4.9.9.9h10.3c.5 0 .9-.4.9-.9s-.4-.9-.9-.9zm3-15H2.9c-1 0-1.9.8-1.9 1.9v10c0 1.1.9 1.9 1.9 1.9h16.3c1.1 0 1.9-.9 1.9-1.9v-10c0-1.1-.9-1.9-1.9-1.9z" class="color656766 svgShape"></path>
  <path fill="#e7e9e0" d="M2.9 43.6c-.5 0-1-.4-1-1V34c0-.5.4-1 1-1h16.3c.5 0 1 .4 1 1v8.6c0 .5-.4 1-1 1H2.9z" class="colore8e4e7 svgShape"></path>
  <path fill="#c4e453" d="M20.2 34.6V34c0-.5-.4-1-1-1H2.9c-.5 0-1 .4-1 1v.6h18.3z" class="color53b2e4 svgShape"></path>
  <path fill="#ddff65" d="M2.9 35.4h5.6v7.3H2.9z" class="colorffca65 svgShape"></path>
  <path fill="#a7bc5d" d="M9.5 35.4h9.6v2.8H9.5z" class="colorbc8d5d svgShape"></path>
  <path fill="#d3d3d3" d="M9.5 39h9.6v.8H9.5zM9.5 40.5h9.6v.8H9.5zM9.5 41.9h9.6v.8H9.5z" class="colord3d3d3 svgShape"></path>
  <path fill="#4d4d4c" d="M34.6 45.8h8.7v1.5h-8.7z" class="color4d4c4d svgShape"></path>
  <path fill="#676765" d="M44.1 47.2H33.8c-.5 0-.9.4-.9.9s.4.9.9.9h10.3c.5 0 .9-.4.9-.9s-.4-.9-.9-.9zm3-15H30.8c-1.1 0-1.9.9-1.9 1.9v10c0 1.1.9 1.9 1.9 1.9h16.3c1.1 0 1.9-.9 1.9-1.9v-10c0-1.1-.9-1.9-1.9-1.9z" class="color656766 svgShape"></path>
  <path fill="#e7e9e0" d="M30.8 43.6c-.5 0-1-.4-1-1V34c0-.5.4-1 1-1h16.3c.5 0 1 .4 1 1v8.6c0 .5-.4 1-1 1H30.8z" class="colore8e4e7 svgShape"></path>
  <path fill="#c4e453" d="M48.1 34.6V34c0-.5-.4-1-1-1H30.8c-.5 0-1 .4-1 1v.6h18.3z" class="color53b2e4 svgShape"></path>
  <path fill="#ceed62" d="M30.8 35.4h5.6v7.3h-5.6z" class="colored6f62 svgShape"></path>
  <path fill="#a7be57" d="M37.5 35.4h9.6v2.8h-9.6z" class="color86be57 svgShape"></path>
  <path fill="#d3d3d3" d="M37.5 39h9.6v.8h-9.6zM37.5 40.5h9.6v.8h-9.6zM37.5 41.9h9.6v.8h-9.6z" class="colord3d3d3 svgShape"></path>
  <path fill="#676765" d="M36.6 1H13.4C12.1 1 11 2.1 11 3.4v4.2c0 1.3 1.1 2.4 2.4 2.4h23.1c1.3 0 2.4-1.1 2.4-2.4V3.4c0-1.3-1-2.4-2.3-2.4z" class="color656766 svgShape"></path>
  <circle cx="15.4" cy="5.5" r="1.7" fill="#ceed62" class="colored6f62 svgShape"></circle>
  <circle cx="19.8" cy="5.5" r="1.7" fill="#a7be57" class="color86be57 svgShape"></circle>
  <circle cx="24.2" cy="5.5" r="1.7" fill="#c4e453" class="color53b2e4 svgShape"></circle>
  <path fill="#676765" d="M36.6 12.7H13.4c-1.3 0-2.4 1.1-2.4 2.4v4.2c0 1.3 1.1 2.4 2.4 2.4h23.1c1.3 0 2.4-1.1 2.4-2.4V15c0-1.3-1-2.3-2.3-2.3z" class="color656766 svgShape"></path>
  <circle cx="15.4" cy="17.1" r="1.7" fill="#ceed62" class="colored6f62 svgShape"></circle>
  <circle cx="19.8" cy="17.1" r="1.7" fill="#a7be57" class="color86be57 svgShape"></circle>
  <circle cx="24.2" cy="17.1" r="1.7" fill="#c4e453" class="color53b2e4 svgShape"></circle>
</svg>
