<?xml version="1.0" encoding="UTF-8" standalone="no"?>
<!-- Generator: Adobe Illustrator 25.4.1, SVG Export Plug-In . SVG Version: 6.00 Build 0)  -->

<svg
   version="1.1"
   id="Layer_1"
   x="0px"
   y="0px"
   viewBox="0 0 152.25 100.2"
   style="enable-background:new 0 0 152.25 100.2;"
   xml:space="preserve"
   sodipodi:docname="logoOscuro.svg"
   inkscape:version="1.3.2 (091e20e, 2023-11-25, custom)"
   xmlns:inkscape="http://www.inkscape.org/namespaces/inkscape"
   xmlns:sodipodi="http://sodipodi.sourceforge.net/DTD/sodipodi-0.dtd"
   xmlns="http://www.w3.org/2000/svg"
   xmlns:svg="http://www.w3.org/2000/svg"><defs
   id="defs4" /><sodipodi:namedview
   id="namedview4"
   pagecolor="#ffffff"
   bordercolor="#000000"
   borderopacity="0.25"
   inkscape:showpageshadow="2"
   inkscape:pageopacity="0.0"
   inkscape:pagecheckerboard="0"
   inkscape:deskcolor="#d1d1d1"
   showgrid="false"
   inkscape:zoom="3.8772456"
   inkscape:cx="70.281852"
   inkscape:cy="57.128184"
   inkscape:window-width="1920"
   inkscape:window-height="991"
   inkscape:window-x="-9"
   inkscape:window-y="-9"
   inkscape:window-maximized="1"
   inkscape:current-layer="g4" />
<style
   type="text/css"
   id="style1">
	.st0{fill:#3C2160;}
</style>
<g
   id="g4">
	<polygon
   class="st0"
   points="116.33,27.06 88.01,76.05 80.48,63 78.48,66.45 85.02,77.78 88.01,82.96 91,77.78 116.32,33.96    121,42.06 95.32,86.51 80.73,86.51 73.81,74.53 71.82,77.98 78.74,89.96 97.32,89.96 124.99,42.06  "
   id="polygon1"
   style="fill:#11091b;fill-opacity:1" />
	<path
   class="st0"
   d="M81.62,27.06L53.31,76.05L34.43,43.36l-0.76-1.33h21.48c8,0,14.48-6.48,14.48-14.49   c0-8-6.48-14.49-14.48-14.49H16.35l-5.83,10.06h42.05c1.22,0,2.33,0.5,3.13,1.3c0.8,0.8,1.3,1.91,1.3,3.13   c0,2.45-1.98,4.43-4.43,4.43H27.86h-5.68H10.53L16.32,42l0.03,0.03h0.02l-0.02,0.03l1.82,3.15l3.87,6.7l0.77,1.33l0.71,1.23   l0.77,1.33L25,57.03l0.77,1.33l18.26,31.61h18.58l27.68-47.9L81.62,27.06z"
   id="path1"
   style="fill:#11091b;fill-opacity:1" />
	<path
   class="st0"
   d="M130.07,83.71c-0.43-1.5-0.87-3-1.28-4.51c-0.2-0.73-0.62-1.26-1.25-1.68c-2.04-1.33-4.07-2.69-6.11-4.03   c-0.65-0.43-1.3-0.86-1.95-1.28c-0.05-0.03-0.15-0.06-0.19-0.04c-0.18,0.11-0.35,0.24-0.54,0.38c0.2,0.28,0.39,0.54,0.57,0.81   c1.41,1.97,2.82,3.95,4.23,5.92c0.07,0.1,0.13,0.16,0.28,0.12c0.45-0.12,0.9,0.16,1.02,0.6c0.12,0.43-0.12,0.9-0.55,1.04   c-0.43,0.15-0.91-0.07-1.08-0.5c-0.13-0.33-0.05-0.63,0.17-0.91c-1.64-2.29-3.27-4.58-4.92-6.88c-0.17,0.12-0.31,0.24-0.47,0.33   c-0.11,0.07-0.12,0.15-0.09,0.26c0.06,0.19,0.1,0.38,0.15,0.57c0.77,2.97,1.53,5.94,2.3,8.91c0.17,0.65,0.54,1.18,1.09,1.56   c1.33,0.91,2.67,1.8,4.01,2.7c0.1,0.07,0.17,0.07,0.27-0.01c1.4-1.02,2.8-2.05,4.21-3.06C130.08,83.94,130.12,83.86,130.07,83.71z"
   id="path2"
   style="fill:#11091b;fill-opacity:1" />
	<path
   class="st0"
   d="M135.66,72.59c-0.28,0.2-0.54,0.38-0.8,0.56c-1.97-2.44-4.46-4-7.51-4.64c-3.04-0.64-5.95-0.22-8.73,1.16   c2.1-1.5,4.19-3,6.29-4.5c0.04,0.03,0.08,0.06,0.11,0.08c0.37,0.24,0.85,0.19,1.14-0.11c0.31-0.32,0.35-0.8,0.1-1.16   c-0.25-0.35-0.72-0.48-1.1-0.31c-0.4,0.18-0.62,0.6-0.51,1.04c0.03,0.13,0,0.18-0.1,0.25c-1.92,1.37-3.85,2.75-5.77,4.13   c-0.25,0.18-0.5,0.35-0.76,0.53c-0.15-0.2-0.28-0.39-0.43-0.59c-0.71,0.51-1.4,1.01-2.1,1.51c0.15,0.21,0.28,0.4,0.42,0.59   c-0.05,0.04-0.07,0.06-0.1,0.08c-2.04,1.46-4.09,2.92-6.13,4.38c-0.1,0.07-0.16,0.04-0.24-0.01c-0.36-0.23-0.84-0.17-1.14,0.14   c-0.29,0.3-0.33,0.78-0.1,1.13c0.25,0.36,0.71,0.5,1.12,0.32c0.39-0.17,0.61-0.59,0.51-1c-0.04-0.15,0-0.22,0.11-0.3   c1.85-1.32,3.71-2.65,5.56-3.97c0.03-0.02,0.06-0.03,0.09-0.05c-2.2,2.19-3.53,4.81-3.89,7.89c-0.37,3.08,0.31,5.93,1.97,8.57   c-0.24,0.17-0.47,0.33-0.71,0.51c0.51,0.71,1,1.4,1.51,2.1c0.71-0.51,1.4-1,2.11-1.51c-0.51-0.71-1.01-1.41-1.51-2.1   c-0.27,0.19-0.52,0.36-0.78,0.55c-1.69-2.72-2.29-5.64-1.73-8.78c0.5-2.81,1.85-5.15,3.99-7.06c0.16,0.22,0.3,0.42,0.45,0.62   c0.71-0.51,1.4-1,2.1-1.5c-0.15-0.21-0.28-0.4-0.43-0.61c2.5-1.35,5.14-1.84,7.93-1.38c3.1,0.51,5.64,2.01,7.64,4.45   c-0.24,0.18-0.46,0.34-0.69,0.5c0.51,0.71,1,1.4,1.51,2.1c0.71-0.51,1.4-1,2.1-1.51C136.66,73.99,136.16,73.29,135.66,72.59z"
   id="path3"
   style="fill:#11091b;fill-opacity:1" />
	<path
   class="st0"
   d="M125.92,87.74c0.39,0.54,0.76,1.06,1.14,1.59c1.55-1.11,3.08-2.2,4.62-3.3c-0.39-0.54-0.76-1.06-1.14-1.59   C128.99,85.54,127.46,86.64,125.92,87.74z"
   id="path4" />
</g>
</svg>
